<?xml version="1.0" encoding="utf-8"?>
<!DOCTYPE svg PUBLIC "-//W3C//DTD SVG 1.1//EN" "http://www.w3.org/Graphics/SVG/1.1/DTD/svg11.dtd">
<svg version="1.1" xmlns="http://www.w3.org/2000/svg" xmlns:xlink="http://www.w3.org/1999/xlink">
<defs>
<g id="shades-store">
  <path class="path1" d="M30 28h-2v-4c0-1.105-0.895-2-2-2s-2 0.895-2 2v4h-16v-4c0-1.105-0.894-2-2-2s-2 0.895-2 2v4h-2c-1.105 0-2 0.895-2 2s0.894 2 2 2h28c1.105 0 2-0.895 2-2s-0.895-2-2-2zM30 0h-28c-1.105 0-2 0.895-2 2v12c0 2.209 1.791 4 4 4s4-1.791 4-4c0 2.209 1.791 4 4 4s4-1.791 4-4c0 2.209 1.791 4 4 4s4-1.791 4-4c0 2.209 1.791 4 4 4s4-1.791 4-4v-12c0-1.105-0.895-2-2-2z"></path>
</g>
<g id="shades-out">
  <path class="path1" d="M30 14c-1.105 0-2 0.896-2 2v12h-24v-12c0-1.104-0.894-2-2-2s-2 0.896-2 2v14c0 1.105 0.894 2 2 2h28c1.105 0 2-0.895 2-2v-14c0-1.104-0.895-2-2-2zM14 20c0 1.105 0.895 2 2 2s2-0.895 2-2v-12h6l-8-8-8 8h6v12z"></path>
</g>
<g id="shades-in">
  <path class="path1" d="M30 14c-1.105 0-2 0.896-2 2v12h-24v-12c0-1.104-0.894-2-2-2s-2 0.896-2 2v14c0 1.105 0.894 2 2 2h28c1.105 0 2-0.895 2-2v-14c0-1.104-0.895-2-2-2zM18 14v-12.244c0-0.97-0.895-1.756-2-1.756s-2 0.786-2 1.756v12.244h-6l8 8 8-8h-6z"></path>
</g>
<g id="shades-in-alt">
  <path class="path1" d="M30 0h-14c-1.105 0-2 0.895-2 2s0.895 2 2 2h12v24h-12c-1.105 0-2 0.895-2 2s0.895 2 2 2h14c1.105 0 2-0.895 2-2v-28c0-1.105-0.895-2-2-2zM14 24l8-8-8-8v6h-12.213c-0.988 0-1.787 0.896-1.787 2s0.799 2 1.787 2h12.213v6z"></path>
</g>
<g id="shades-home">
  <path class="path1" d="M31.418 12.405l-11.819-11.818c-0.451-0.453-1.056-0.628-1.648-0.579h-3.901c-0.592-0.049-1.197 0.126-1.648 0.579l-2.4 2.4v-2.979h-5.998v8.977l-3.421 3.42c-0.453 0.453-0.627 1.057-0.578 1.648v3.95c0 1.104 0.894 2 1.999 2h1.999v9.997c0 1.104 0.894 2 2 2h19.995c1.105 0 2-0.895 2-2v-9.997h1.999c1.105 0 2-0.895 2-2v-3.95c0.049-0.591-0.125-1.195-0.578-1.648zM27.997 16.004h-3.999v11.997h-3.999v-7.998h-7.998v7.998h-3.999v-11.997h-3.999v-1.109l10.888-10.888h2.218l10.888 10.888v1.109z"></path>
</g>
<g id="shades-lightbulb">
  <path class="path1" d="M17 0h-2c-6.076 0-11 4.925-11 11 0 4.275 2.438 7.98 6 9.801v1.199c0 1.105 0.895 2 2 2h8c1.105 0 2-0.895 2-2v-1.2c3.561-1.821 6-5.526 6-9.8 0-6.075-4.926-11-11-11zM18 17.929v2.071h-4v-2.071c-3.392-0.485-6-3.402-6-6.929 0-3.866 3.135-7 7-7h2c3.865 0 7 3.134 7 7 0 3.527-2.608 6.443-6 6.929zM13 26h6c0.553 0 1 0.448 1 1s-0.447 1-1 1h-6c-0.553 0-1-0.448-1-1s0.447-1 1-1zM15 30h2c0.553 0 1 0.448 1 1s-0.447 1-1 1h-2c-0.553 0-1-0.448-1-1s0.447-1 1-1z"></path>
</g>
<g id="shades-anchor">
  <path class="path1" d="M29.558 25.557c-2.941 3.985-8.062 6.489-13.558 6.442-5.496 0.047-10.617-2.457-13.558-6.442l-2.441 2.442v-8h8l-2.199 2.198c1.764 2.92 4.715 5.018 8.199 5.613v-12.095c-3.445-0.892-6-3.993-6-7.717 0-4.418 3.582-8 8-8s8 3.582 8 8c0 3.724-2.555 6.825-6 7.717v12.095c3.484-0.595 6.435-2.693 8.199-5.613l-2.199-2.198h8v8l-2.441-2.442zM20 8c0-2.209-1.791-4-4-4s-4 1.791-4 4c0 2.209 1.791 4 4 4s4-1.791 4-4z"></path>
</g>
<g id="shades-feather">
  <path class="path1" d="M27.075 2.664c-1.118-0.616-4.2-2.134-6.211-2.551-2.088-0.434-5.196 7.72-6.183 7.756-1.602 0.057-0.194-5.567 1.328-7.869-2.376 1.587-6.598 3.717-7.585 6.167-1.909 4.735 3.539 13.255 0.632 13.745-0.906 0.153-3.416-5.876-4.068-7.716-1.841 3.52-0.455 6.814 1.067 10.931v0.256c-0.058 0.223-0.109 0.436-0.161 0.652h0.161v5.973c0 1.101 0.891 1.991 1.991 1.991s1.991-0.891 1.991-1.991v-6.037c3.716-0.418 5.464 0.8 8.009-4.026-1.554 0.643-4.655-1.315-4.011-2.24 1.293-1.861 6.58 0.105 9.95-5.615-5.334 1.421-5.964-0.616-6.014-1.359-0.107-1.538 5.332-0.723 7.811-2.861 1.437-1.24 3.16-4.177 1.293-5.207z"></path>
</g>
<g id="shades-expand">
  <path class="path1" d="M11.148 17.988l-6.58 6.58-2.568-2.568c-1.105 0-2 0.895-2 2v6c0 1.105 0.894 2 2 2h6c1.105 0 2-0.895 2-2l-2.568-2.566 6.58-6.582-2.863-2.863zM30 0h-6c-1.105 0-2 0.895-2 2l2.568 2.568-6.58 6.58 2.863 2.863 6.58-6.579 2.568 2.567c1.105 0 2-0.895 2-2v-6c0-1.105-0.895-2-2-2zM30 22l-2.568 2.568-6.58-6.58-2.863 2.863 6.58 6.582-2.568 2.567c0 1.105 0.895 2 2 2h6c1.105 0 2-0.895 2-2v-6c0-1.105-0.895-2-2-2zM10 2c0-1.105-0.895-2-2-2h-6c-1.105 0-2 0.895-2 2v6c0 1.105 0.894 2 2 2l2.568-2.567 6.58 6.579 2.863-2.863-6.58-6.58 2.568-2.568z"></path>
</g>
<g id="shades-maximize">
  <path class="path1" d="M30 10l-2.568-2.567-6.58 6.579-2.863-2.863 6.58-6.58-2.568-2.568c0-1.105 0.895-2 2-2h6c1.105 0 2 0.895 2 2v6c0 1.105-0.895 2-2 2zM10 30c0 1.105-0.895 2-2 2h-6c-1.105 0-2-0.895-2-2v-6c0-1.105 0.894-2 2-2l2.568 2.568 6.58-6.58 2.863 2.863-6.58 6.582 2.568 2.566z"></path>
</g>
<g id="shades-search">
  <path class="path1" d="M31.12 31.12c-1.174 1.174-3.077 1.174-4.25 0l-5.304-5.304c-2.18 1.399-4.758 2.232-7.541 2.232-7.745 0-14.024-6.278-14.024-14.024s6.279-14.024 14.024-14.024c7.746 0 14.024 6.278 14.024 14.024 0 2.782-0.834 5.361-2.232 7.542l5.304 5.304c1.174 1.174 1.174 3.076 0 4.249zM14.024 4.007c-5.532 0-10.017 4.484-10.017 10.017s4.485 10.017 10.017 10.017c5.533 0 10.017-4.484 10.017-10.017s-4.484-10.017-10.017-10.017z"></path>
</g>
<g id="shades-zoomin">
  <path class="path1" d="M31.12 31.12c-1.174 1.174-3.077 1.174-4.25 0l-5.304-5.304c-2.181 1.398-4.758 2.232-7.541 2.232-7.745 0-14.024-6.278-14.024-14.024s6.279-14.024 14.024-14.024c7.746 0 14.024 6.278 14.024 14.024 0 2.783-0.834 5.361-2.232 7.542l5.304 5.303c1.174 1.174 1.174 3.076 0 4.25zM14.024 4.007c-5.532 0-10.017 4.485-10.017 10.017s4.485 10.017 10.017 10.017c5.533 0 10.017-4.484 10.017-10.017s-4.484-10.017-10.017-10.017zM16.027 20.034h-4.007v-4.007h-4.007v-4.007h4.007v-4.007h4.007v4.007h4.007v4.007h-4.007v4.007z"></path>
</g>
<g id="shades-zoomout">
  <path class="path1" d="M31.12 26.869l-5.304-5.303c1.398-2.181 2.232-4.759 2.232-7.542 0-7.746-6.278-14.024-14.024-14.024s-14.024 6.278-14.024 14.024 6.279 14.024 14.024 14.024c2.783 0 5.361-0.834 7.541-2.232l5.304 5.304c1.174 1.174 3.077 1.174 4.25 0s1.174-3.077 0-4.25zM14.024 24.041c-5.532 0-10.017-4.484-10.017-10.017s4.485-10.017 10.017-10.017c5.533 0 10.017 4.485 10.017 10.017s-4.484 10.017-10.017 10.017zM8.014 16.027h12.021v-4.007h-12.021v4.007z"></path>
</g>
<g id="shades-add">
  <path class="path1" d="M16 32c-8.836 0-16-7.163-16-16s7.164-16 16-16c8.837 0 16 7.163 16 16s-7.163 16-16 16zM16 4c-6.627 0-12 5.373-12 12s5.373 12 12 12c6.628 0 12-5.373 12-12s-5.372-12-12-12zM18 24h-4v-6h-6v-4h6v-6h4v6h6v4h-6v6z"></path>
</g>
<g id="shades-subtract">
  <path class="path1" d="M16 0c-8.836 0-16 7.164-16 16s7.164 16 16 16c8.837 0 16-7.163 16-16 0-8.836-7.163-16-16-16zM16 28c-6.627 0-12-5.373-12-12s5.373-12 12-12c6.628 0 12 5.373 12 12s-5.372 12-12 12zM8 18h16v-4h-16v4z"></path>
</g>
<g id="shades-exclamation">
  <path class="path1" d="M16 32c-8.836 0-16-7.163-16-16 0-8.836 7.164-16 16-16s16 7.164 16 16c0 8.837-7.164 16-16 16zM16 4c-6.627 0-12 5.373-12 12s5.373 12 12 12 12-5.373 12-12-5.373-12-12-12zM14 20h4v4h-4v-4zM14 8h4v10h-4v-10z"></path>
</g>
<g id="shades-question">
  <path class="path1" d="M16 32c-8.836 0-16-7.163-16-16 0-8.836 7.164-16 16-16s16 7.164 16 16c0 8.837-7.164 16-16 16zM16 4c-6.627 0-12 5.373-12 12s5.373 12 12 12 12-5.373 12-12-5.373-12-12-12zM16 8c-3.314 0-6 2.687-6 6h4c0-1.104 0.895-2 2-2s2 0.896 2 2-0.895 2-2 2c-0.077 0-0.319 0-1 0-0.553 0-1 0.448-1 1v3h4v-0.367c2.324-0.826 4-3.024 4-5.633 0-3.313-2.686-6-6-6zM16 22h-2v2h4v-2z"></path>
</g>
<g id="shades-close">
  <path class="path1" d="M4.685 27.313c-6.248-6.248-6.248-16.379 0-22.627 6.25-6.248 16.379-6.248 22.629 0 6.248 6.248 6.248 16.379 0 22.627-6.25 6.249-16.379 6.249-22.629 0zM24.486 7.514c-4.688-4.687-12.285-4.687-16.971 0-4.688 4.687-4.688 12.284 0 16.971 4.686 4.687 12.283 4.687 16.971 0 4.686-4.687 4.686-12.284 0-16.971zM11.758 23.071l-2.828-2.829 4.242-4.242-4.242-4.242 2.828-2.829 4.242 4.243 4.242-4.243 2.828 2.829-4.242 4.242 4.242 4.242-2.828 2.829-4.242-4.243-4.242 4.243z"></path>
</g>
<g id="shades-cmd">
  <path class="path1" d="M25 18c-1.078 0-2.088 0.264-3 0.699v-5.398c0.912 0.435 1.922 0.699 3 0.699 3.865 0 7-3.134 7-7s-3.135-7-7-7-7 3.134-7 7v3h-4v-3c0-3.866-3.135-7-7-7s-7 3.134-7 7 3.135 7 7 7c1.078 0 2.088-0.264 3-0.699v5.398c-0.912-0.436-1.922-0.699-3-0.699-3.865 0-7 3.134-7 7s3.135 7 7 7 7-3.134 7-7v-3h4v3c0 3.866 3.135 7 7 7s7-3.134 7-7-3.135-7-7-7zM25 4c1.656 0 3 1.343 3 3s-1.344 3-3 3-3-1.343-3-3 1.344-3 3-3zM7 28c-1.656 0-3-1.343-3-3s1.344-3 3-3 3 1.343 3 3-1.344 3-3 3zM7 10c-1.656 0-3-1.343-3-3s1.344-3 3-3 3 1.343 3 3-1.344 3-3 3zM18 18h-4v-4h4v4zM25 28c-1.656 0-3-1.343-3-3s1.344-3 3-3 3 1.343 3 3-1.344 3-3 3z"></path>
</g>
<g id="shades-forbid">
  <path class="path1" d="M16 32c-8.836 0-16-7.164-16-16s7.164-16 16-16 16 7.163 16 16c0 8.836-7.164 16-16 16zM4 16c0 2.582 0.832 4.957 2.221 6.916l16.695-16.696c-1.957-1.387-4.334-2.22-6.916-2.22-6.627 0-12 5.373-12 12zM25.779 9.084l-16.695 16.697c1.957 1.387 4.334 2.219 6.916 2.219 6.627 0 12-5.373 12-12 0-2.582-0.832-4.958-2.221-6.916z"></path>
</g>
<g id="shades-book">
  <path class="path1" d="M16 6l-12-6h-2c-1.105 0-2 0.895-2 2v22c0 1.105 0.894 2 2 2l14 6 14-6c1.105 0 2-0.895 2-2v-22c0-1.105-0.895-2-2-2h-2zM14 27l-10-5v-16l10 3.333v17.667zM28 22l-10 5v-17.667l10-3.333v16z"></path>
</g>
<g id="shades-spinner">
  <path class="path1" d="M30 18h-4c-1.105 0-2-0.895-2-2s0.895-2 2-2h4c1.105 0 2 0.895 2 2s-0.895 2-2 2zM24.484 10.344c-0.781 0.781-2.047 0.781-2.828 0s-0.781-2.047 0-2.828l2.828-2.828c0.781-0.781 2.047-0.781 2.828 0s0.781 2.047 0 2.828l-2.828 2.828zM16 32c-1.105 0-2-0.895-2-2v-4c0-1.105 0.895-2 2-2s2 0.895 2 2v4c0 1.105-0.895 2-2 2zM16 8c-1.105 0-2-0.894-2-2v-4c0-1.105 0.895-2 2-2s2 0.894 2 2v4c0 1.106-0.895 2-2 2zM7.516 27.313c-0.781 0.781-2.047 0.781-2.828 0-0.781-0.779-0.781-2.047 0-2.828l2.828-2.828c0.781-0.781 2.047-0.781 2.828 0s0.781 2.047 0 2.828l-2.828 2.828zM7.516 10.344l-2.828-2.828c-0.781-0.781-0.781-2.047 0-2.828s2.047-0.781 2.828 0l2.828 2.828c0.781 0.781 0.781 2.047 0 2.828s-2.047 0.781-2.828 0zM8 16c0 1.105-0.894 2-2 2h-4c-1.105 0-2-0.895-2-2s0.894-2 2-2h4c1.106 0 2 0.895 2 2zM24.484 21.656l2.828 2.828c0.781 0.781 0.781 2.049 0 2.828-0.781 0.781-2.047 0.781-2.828 0l-2.828-2.828c-0.781-0.781-0.781-2.047 0-2.828s2.047-0.781 2.828 0z"></path>
</g>
<g id="shades-play">
  <path class="path1" d="M16 32c-8.836 0-16-7.164-16-16s7.164-16 16-16 16 7.163 16 16c0 8.836-7.164 16-16 16zM16 4c-6.627 0-12 5.373-12 12s5.373 12 12 12 12-5.373 12-12-5.373-12-12-12zM12 10l10 6-10 6v-12z"></path>
</g>
<g id="shades-stop">
  <path class="path1" d="M16 32c-8.836 0-16-7.164-16-16s7.164-16 16-16 16 7.163 16 16c0 8.836-7.164 16-16 16zM16 4c-6.627 0-12 5.373-12 12s5.373 12 12 12 12-5.373 12-12-5.373-12-12-12zM12 12h8v8h-8v-8z"></path>
</g>
<g id="shades-pause">
  <path class="path1" d="M16 0c-8.836 0-16 7.163-16 16 0 8.836 7.164 16 16 16s16-7.164 16-16c0-8.837-7.164-16-16-16zM16 28c-6.627 0-12-5.373-12-12s5.373-12 12-12 12 5.373 12 12-5.373 12-12 12zM10 20h4v-8h-4v8zM18 20h4v-8h-4v8z"></path>
</g>
<g id="shades-forward">
  <path class="path1" d="M16 0c-8.836 0-16 7.163-16 16 0 8.836 7.164 16 16 16s16-7.164 16-16c0-8.837-7.164-16-16-16zM16 28c-6.627 0-12-5.373-12-12s5.373-12 12-12 12 5.373 12 12-5.373 12-12 12zM24 16l-8-6v4.5l-6-4.5v12l6-4.5v4.5z"></path>
</g>
<g id="shades-rewind">
  <path class="path1" d="M16 0c-8.836 0-16 7.164-16 16s7.164 16 16 16 16-7.163 16-16c0-8.836-7.164-16-16-16zM16 28c-6.627 0-12-5.373-12-12s5.373-12 12-12 12 5.373 12 12-5.373 12-12 12zM8 16l8 6v-4.5l6 4.5v-12l-6 4.5v-4.5z"></path>
</g>
<g id="shades-sound">
  <path class="path1" d="M25.513 9.415c-0.812 0.81-2.125 0.81-2.936 0-0.81-0.81-0.81-2.125 0-2.936l5.871-5.871c0.812-0.81 2.125-0.81 2.936 0 0.81 0.81 0.81 2.125 0 2.936l-5.871 5.871zM15.992 31.983l-7.991-7.992h-5.994c-1.104 0-1.998-0.894-1.998-1.998v-11.987c0-1.104 0.894-1.998 1.998-1.998h5.994l7.992-7.992c0 0 1.998-0.25 1.998 1.998 0 11.952 0 29.933 0 27.97 0 2.248-1.998 1.998-1.998 1.998zM13.994 8.008l-3.996 3.996h-5.994v7.991h5.994l3.996 3.996v-15.983zM23.983 17.998c-1.104 0-1.998-0.894-1.998-1.998s0.894-1.998 1.998-1.998h5.994c1.104 0 1.998 0.894 1.998 1.998s-0.894 1.998-1.998 1.998h-5.994zM25.513 22.585l5.871 5.871c0.81 0.812 0.81 2.127 0 2.936-0.812 0.81-2.125 0.81-2.936 0l-5.871-5.871c-0.81-0.812-0.81-2.127 0-2.936 0.812-0.81 2.125-0.81 2.936 0z"></path>
</g>
<g id="shades-sound-alt">
  <path class="path1" d="M19.998 31.469v-4.209c4.648-1.651 7.996-6.044 7.996-11.26 0-5.214-3.348-9.608-7.996-11.26v-4.209c6.893 1.78 11.994 8.019 11.994 15.469s-5.101 13.69-11.994 15.469zM16 31.992l-7.996-7.996h-5.997c-1.105 0-1.999-0.894-1.999-1.999v-11.994c0-1.105 0.894-1.999 1.999-1.999h5.997l7.996-7.996c0 0 1.999-0.25 1.999 1.999 0 4.556 0 23.878 0 27.986 0 2.249-1.999 1.999-1.999 1.999zM14.001 8.004l-3.998 3.998h-5.997v7.996h5.997l3.998 3.998v-15.992zM25.995 16c0 3.721-2.553 6.821-5.997 7.713v-4.269c1.191-0.693 1.999-1.968 1.999-3.444s-0.808-2.751-1.999-3.444v-4.269c3.444 0.892 5.997 3.992 5.997 7.713z"></path>
</g>
<g id="shades-soundoff">
  <path class="path1" d="M31.975 18.983l-2.981 2.983-2.983-2.983-2.983 2.983-2.981-2.983 2.981-2.983-2.981-2.983 2.981-2.983 2.983 2.983 2.983-2.983 2.981 2.983-2.981 2.983 2.981 2.983zM16.017 31.992l-7.996-7.996h-5.997c-1.105 0-1.999-0.894-1.999-1.999v-11.994c0-1.105 0.894-1.999 1.999-1.999h5.997l7.996-7.996c0 0 1.999-0.25 1.999 1.999 0 10.846 0 26.607 0 27.986 0 2.249-1.999 1.999-1.999 1.999zM14.018 8.004l-3.998 3.998h-5.997v7.996h5.997l3.998 3.998v-15.992z"></path>
</g>
<g id="shades-task">
  <path class="path1" d="M20.357 7.977l-6.039 6.477-2.768-2.967-2.551 2.736 5.424 5.771 8.572-9.189zM30 0h-28c-1.105 0-2 0.894-2 2v28c0 1.105 0.894 2 2 2h28c1.105 0 2-0.895 2-2v-28c0-1.105-0.895-2-2-2zM28 22h-6v6h-12v-6h-6v-18h24v18z"></path>
</g>
<g id="shades-inbox">
  <path class="path1" d="M30 0h-28c-1.105 0-2 0.894-2 2v28c0 1.105 0.894 2 2 2h28c1.105 0 2-0.895 2-2v-28c0-1.105-0.895-2-2-2zM28 22h-6v6h-12v-6h-6v-18h24v18zM8 14h16v4h-16zM8 8h16v4h-16z"></path>
</g>
<g id="shades-inbox-alt">
  <path class="path1" d="M24 0h-16l-8 16v14c0 1.105 0.895 2 2 2h28c1.105 0 2-0.895 2-2v-14l-8-16zM28 28h-24v-12l6-12h12l6 12v12zM20 8h-8l-4 8h4v4h8v-4h4z"></path>
</g>
<g id="shades-envelope">
  <path class="path1" d="M30 4h-28c-1.104 0-2 0.894-2 2v20c0 1.105 0.896 2 2 2h28c1.105 0 2-0.895 2-2v-20c0-1.106-0.896-2-2-2zM26 8l-10 8-10-8h20zM28 24h-24v-14l12 10 12-10v14z"></path>
</g>
<g id="shades-compose">
  <path class="path1" d="M30 32h-28c-1.105 0-2-0.895-2-2v-28c0-1.105 0.895-2 2-2h20l-4 4h-14v24h24v-14l4-4v20c0 1.105-0.895 2-2 2zM8 24v-6l18-18h2l4 4v2l-18 18h-6zM17 17l11-11-2-2-11 11 2 2zM12 18l-2 2v2h2l2-2-2-2z"></path>
</g>
<g id="shades-newspaper">
  <path class="path1" d="M8 22h10v2h-10zM8 18h10v2h-10zM8 8h10v8h-10zM30 4h-6v-4h-22c-1.105 0-2 0.895-2 2v28c0 1.105 0.894 2 2 2h28c1.105 0 2-0.895 2-2v-24c0-1.104-0.895-2-2-2zM28 28h-24v-24h18v20h2v-16h4v20z"></path>
</g>
<g id="shades-newspaper-alt">
  <path class="path1" d="M30 0h-24c-1.106 0-2 0.895-2 2v2h-2c-1.105 0-2 0.896-2 2v24c0 1.105 0.894 2 2 2h28c1.105 0 2-0.895 2-2v-28c0-1.105-0.895-2-2-2zM8 28h-4v-20h4v20zM28 28h-16v-24h16v24zM16 8h8v4h-8zM16 20h8v4h-8zM16 14h8v4h-8z"></path>
</g>
<g id="shades-clipboard">
  <path class="path1" d="M30 32h-28c-1.105 0-2-0.895-2-2v-28c0-1.105 0.894-2 2-2h4v4h-2v24h24v-24h-2v-4h4c1.105 0 2 0.895 2 2v28c0 1.105-0.895 2-2 2zM8 8h2v-6h4v-2h4v2h4v6h2v16h-16v-16zM18 4h-4v2h4v-2zM12 20h8v-8h-8v8z"></path>
</g>
<g id="shades-calendar">
  <path class="path1" d="M26 0h-4v4h4v-4zM30 0h-2v6h-8v-6h-8v6h-8v-6h-2c-1.105 0-2 0.895-2 2v28c0 1.105 0.894 2 2 2h28c1.105 0 2-0.895 2-2v-28c0-1.105-0.895-2-2-2zM28 28h-24v-18h24v18zM10 0h-4v4h4v-4zM18 14h-4v4h4v-4zM24 14h-4v4h4v-4zM12 20h-4v4h4v-4zM12 14h-4v4h4v-4zM18 20h-4v4h4v-4zM24 20h-4v4h4v-4z"></path>
</g>
<g id="shades-hyperlink">
  <path class="path1" d="M31.467 8.267l-7.733-7.733c-0.711-0.711-1.866-0.711-2.577 0l-7.733 7.733c-0.713 0.711-0.713 1.866 0 2.579l1.288 1.288 7.733-7.733 5.156 5.156-7.733 7.733 1.29 1.29c0.711 0.711 1.866 0.711 2.577 0l7.733-7.733c0.711-0.713 0.711-1.868 0-2.579zM17.29 19.867l-7.733 7.733-5.156-5.156 7.733-7.733-1.29-1.29c-0.711-0.711-1.866-0.711-2.577 0l-7.733 7.733c-0.711 0.713-0.711 1.868 0 2.579l7.733 7.733c0.711 0.711 1.866 0.711 2.577 0l7.733-7.733c0.713-0.711 0.713-1.866 0-2.579l-1.288-1.288zM10.844 21.154c0.713 0.713 1.866 0.713 2.579 0l7.733-7.733c0.711-0.711 0.711-1.864 0-2.575-0.713-0.713-1.866-0.713-2.579 0l-7.733 7.733c-0.711 0.711-0.711 1.864 0 2.575z"></path>
</g>
<g id="shades-trash">
  <path class="path1" d="M18 14h4v10h-4zM30 6h-8v-4c0-1.105-0.895-2-2-2h-8c-1.105 0-2 0.894-2 2v4h-8c-1.105 0-2 0.894-2 2v2h2v20c0 1.105 0.894 2 2 2h24c1.105 0 2-0.895 2-2v-20h2v-2c0-1.106-0.895-2-2-2zM14 4h4v2h-4v-2zM26 28h-20v-18h20v18zM10 14h4v10h-4z"></path>
</g>
<g id="shades-trash-alt">
  <path class="path1" d="M30 6h-8v-4c0-1.105-0.895-2-2-2h-8c-1.105 0-2 0.894-2 2v4h-8c-1.105 0-2 0.894-2 2v2h4v20c0 1.105 0.894 2 2 2h20c1.105 0 2-0.895 2-2v-20h4v-2c0-1.106-0.895-2-2-2zM14 4h4v2h-4v-2zM24 28h-16v-18h16v18z"></path>
</g>
<g id="shades-grid">
  <path class="path1" d="M12 18h-10c-1.105 0-2 0.895-2 2v10c0 1.105 0.894 2 2 2h10c1.105 0 2-0.895 2-2v-10c0-1.105-0.895-2-2-2zM10 28h-6v-6h6v6zM12 0h-10c-1.105 0-2 0.894-2 2v10c0 1.105 0.894 2 2 2h10c1.105 0 2-0.895 2-2v-10c0-1.105-0.895-2-2-2zM10 10h-6v-6h6v6zM30 18h-10c-1.105 0-2 0.895-2 2v10c0 1.105 0.895 2 2 2h10c1.105 0 2-0.895 2-2v-10c0-1.105-0.895-2-2-2zM28 28h-6v-6h6v6zM30 0h-10c-1.105 0-2 0.894-2 2v10c0 1.105 0.895 2 2 2h10c1.105 0 2-0.895 2-2v-10c0-1.105-0.895-2-2-2zM28 10h-6v-6h6v6z"></path>
</g>
<g id="shades-grid-alt">
  <path class="path1" d="M30 32h-28c-1.105 0-2-0.895-2-2v-28c0-1.105 0.894-2 2-2h28c1.105 0 2 0.894 2 2v28c0 1.105-0.895 2-2 2zM28 4h-24v24h24v-24zM14 14h-6v-6h6v6zM14 24h-6v-6h6v6zM24 14h-6v-6h6v6zM24 24h-6v-6h6v6z"></path>
</g>
<g id="shades-menu">
  <path class="path1" d="M8 20h16v4h-16zM8 14h16v4h-16zM30 0h-28c-1.105 0-2 0.894-2 2v28c0 1.105 0.894 2 2 2h28c1.105 0 2-0.895 2-2v-28c0-1.105-0.895-2-2-2zM28 28h-24v-24h24v24zM8 8h16v4h-16z"></path>
</g>
<g id="shades-list">
  <path class="path1" d="M8 8h4v4h-4zM8 14h4v4h-4zM8 20h4v4h-4zM16 20h8v4h-8zM30 0h-28c-1.105 0-2 0.894-2 2v28c0 1.105 0.894 2 2 2h28c1.105 0 2-0.895 2-2v-28c0-1.105-0.895-2-2-2zM28 28h-24v-24h24v24zM16 14h8v4h-8zM16 8h8v4h-8z"></path>
</g>
<g id="shades-gallery">
  <path class="path1" d="M30 0h-16c-1.105 0-2 0.894-2 2v16c0 1.105 0.895 2 2 2h16c1.105 0 2-0.895 2-2v-16c0-1.105-0.895-2-2-2zM28 16h-12v-12h12v12zM16 28h-12v-12h4v-4h-6c-1.105 0-2 0.895-2 2v16c0 1.105 0.894 2 2 2h16c1.105 0 2-0.895 2-2v-6h-4v4z"></path>
</g>
<g id="shades-calculator">
  <path class="path1" d="M28 0h-24c-1.106 0-2 0.894-2 2v28c0 1.105 0.894 2 2 2h24c1.105 0 2-0.895 2-2v-28c0-1.105-0.895-2-2-2zM10 28h-4v-4h4v4zM10 22h-4v-4h4v4zM10 16h-4v-4h4v4zM18 28h-4v-4h4v4zM18 22h-4v-4h4v4zM18 16h-4v-4h4v4zM26 28h-4v-4h4v4zM26 22h-4v-4h4v4zM26 16h-4v-4h4v4zM26 8h-20v-4h20v4z"></path>
</g>
<g id="shades-windows">
  <path class="path1" d="M30 24h-2v-20h-20v-2c0-1.105 0.895-2 2-2h20c1.105 0 2 0.894 2 2v20c0 1.105-0.895 2-2 2zM26 8v22c0 1.105-0.895 2-2 2h-22c-1.105 0-2-0.895-2-2v-22c0-1.106 0.894-2 2-2h22c1.105 0 2 0.894 2 2zM22 10h-18v6h18v-6zM22 20h-18v8h18v-8zM8 14h-2v-2h2v2zM12 14h-2v-2h2v2zM20 14h-6v-2h6v2z"></path>
</g>
<g id="shades-browser">
  <path class="path1" d="M30 32h-28c-1.105 0-2-0.895-2-2v-28c0-1.105 0.894-2 2-2h28c1.105 0 2 0.894 2 2v28c0 1.105-0.895 2-2 2zM28 4h-24v6h24v-6zM28 14h-24v14h24v-14zM8 8h-2v-2h2v2zM12 8h-2v-2h2v2zM26 8h-12v-2h12v2z"></path>
</g>
<g id="shades-alarm">
  <path class="path1" d="M28.002 16.003c0-6.628-5.372-12.002-12.002-12.002-6.628 0-12.002 5.374-12.002 12.002 0 4.168 2.125 7.839 5.351 9.991l-3.343 3.341 2.661 2.665 4.365-4.365c0.949 0.242 1.944 0.37 2.968 0.37s2.019-0.129 2.968-0.37l4.365 4.365 2.661-2.665-3.342-3.341c3.226-2.152 5.351-5.823 5.351-9.991zM16 24.004c-4.419 0-8.001-3.583-8.001-8.001s3.583-8.001 8.001-8.001 8.001 3.583 8.001 8.001c0 4.419-3.583 8.001-8.001 8.001zM28.002 0c-2.209 0-4.001 1.791-4.001 4.001 0 0.182 0.013 0.361 0.037 0.536 1.332 0.935 2.493 2.096 3.428 3.428 0.175 0.024 0.354 0.037 0.536 0.037 2.209 0 4.001-1.791 4.001-4.001s-1.791-4.001-4.001-4.001zM4.534 7.965c0.935-1.332 2.096-2.493 3.428-3.428 0.024-0.175 0.037-0.354 0.037-0.536 0-2.209-1.791-4.001-4.001-4.001s-4.001 1.791-4.001 4.001c0 2.209 1.791 4.001 4.001 4.001 0.182-0 0.36-0.013 0.536-0.037zM18 14.003v-4.001h-4.001v8.002h6.001v-4.001z"></path>
</g>
<g id="shades-clock">
  <path class="path1" d="M18 14v-6h-4v10h8v-4zM16 0c-8.836 0-16 7.164-16 16s7.164 16 16 16 16-7.164 16-16-7.164-16-16-16zM16 28c-6.627 0-12-5.373-12-12s5.373-12 12-12 12 5.373 12 12-5.373 12-12 12z"></path>
</g>
<g id="shades-attachment">
  <path class="path1" d="M18 31.799v0.201h-4v-0.201c-6.777-0.979-12-6.752-12-13.799v-8c0-5.523 4.477-10 10-10 4.838 0 9.072 3.436 10 8v0 10c0 3.314-2.688 6-6 6s-6-2.686-6-6v-8c0-1.105 0.895-2 2-2s2 0.895 2 2v8c0 1.105 0.895 2 2 2s2-0.895 2-2v-10c0 0-1.291-4-6-4-3.313 0-6 2.686-6 6v8c0 5.523 4.477 10 10 10v0c5.523 0 10-4.477 10-10v-16c0-1.105 0.895-2 2-2s2 0.894 2 2v16c0 7.047-5.223 12.82-12 13.799z"></path>
</g>
<g id="shades-settings">
  <path class="path1" d="M32 14v4h-4.182c-0.299 1.771-1.003 3.398-1.989 4.814l4.194 3.646-2.887 3.566-4.624-4.021c-1.347 0.875-2.863 1.514-4.513 1.793v4.201h-4v-4.182c-1.654-0.279-3.173-0.924-4.521-1.807l-4.616 4.016-2.887-3.566 4.201-3.654c-0.979-1.414-1.678-3.037-1.977-4.807h-4.201v-4h4.182c0.299-1.771 1.003-3.398 1.989-4.814l-4.194-3.646 2.887-3.566 4.624 4.021c1.347-0.875 2.863-1.514 4.513-1.793v-4.201h4v4.201c1.649 0.279 3.166 0.918 4.513 1.793l4.624-4.021 2.887 3.566-4.194 3.646c0.986 1.416 1.69 3.043 1.989 4.814h4.182zM16 10c-3.313 0-6 2.686-6 6s2.687 6 6 6 6-2.686 6-6-2.686-6-6-6z"></path>
</g>
<g id="shades-portfolio">
  <path class="path1" d="M30 6h-8v-4c0-1.105-0.895-2-2-2h-8c-1.104 0-2 0.894-2 2v4h-8c-1.105 0-2 0.894-2 2v22c0 1.105 0.895 2 2 2h28c1.105 0 2-0.895 2-2v-22c0-1.106-0.895-2-2-2zM14 4h4v2h-4v-2zM28 28h-24v-8h8v2h8v-2h8v8zM28 18h-8v-2h-8v2h-8v-8h24v8z"></path>
</g>
<g id="shades-user">
  <path class="path1" d="M23.865 15.338c0.074-0.435 0.135-0.879 0.135-1.338v-6c0-4.418-3.582-8-8-8s-8 3.582-8 8v6c0 0.459 0.061 0.902 0.135 1.338-4.84 1.719-8.135 4.936-8.135 8.662v6c0 1.105 0.894 2 2 2h28c1.105 0 2-0.895 2-2v-6c0-3.727-3.295-6.943-8.135-8.662zM12 8c0-2.209 1.791-4 4-4s4 1.791 4 4v6c0 2.209-1.791 4-4 4s-4-1.791-4-4v-6zM28 28h-24v-4c0-2.16 2.301-4.037 5.725-5.094 1.465 1.871 3.717 3.094 6.275 3.094s4.811-1.223 6.275-3.094c3.424 1.057 5.725 2.934 5.725 5.094v4z"></path>
</g>
<g id="shades-users">
  <path class="path1" d="M18 19.109v-5.109c0-3.314-2.686-6-6-6s-6 2.686-6 6v5.109c-3.572 1.387-6 3.938-6 6.891 0 0.354 0 4 0 4 0 1.105 0.894 2 2 2h20c1.105 0 2-0.895 2-2 0 0 0-3.646 0-4 0-2.953-2.428-5.504-6-6.891zM10 14c0-1.105 0.895-2 2-2s2 0.895 2 2v6c0 1.105-0.895 2-2 2s-2-0.895-2-2v-6zM20 28h-16v-2c0-1.215 1.107-2.291 2.818-3.025 1.037 1.801 2.957 3.025 5.182 3.025s4.145-1.225 5.182-3.025c1.711 0.734 2.818 1.811 2.818 3.025v2zM26 11.109v-5.109c0-3.314-2.686-6-6-6s-6 2.686-6 6v0.283c1.58 0.408 2.957 1.283 4 2.477v-2.76c0-1.106 0.895-2 2-2s2 0.894 2 2v6c0 1.105-0.895 2-2 2v4c2.225 0 4.145-1.225 5.182-3.025 1.711 0.734 2.818 1.811 2.818 3.025v2h-7.299c2.014 1.037 3.561 2.406 4.441 4h4.857c1.105 0 2-0.895 2-2 0 0 0-3.646 0-4 0-2.953-2.428-5.504-6-6.891z"></path>
</g>
<g id="shades-heart">
  <path class="path1" d="M32 12c0 8.873-16 20-16 20s-16-11.127-16-20c-0.018-0.885 0.074-1.877 0-3-0.33-4.959 4.029-9 9-9 2.846 0 5.352 1.939 7 4 1.648-2.061 4.154-4 7-4 4.971 0 9.33 4.041 9 9-0.074 1.123 0.018 2.115 0 3zM28 9c0.248-2.75-2.238-5-5-5-5.182 0-5 4-5 4 0 1.105-0.895 2-2 2s-2-0.895-2-2c0 0 0.182-4-5-4-2.762 0-5.248 2.25-5 5 0.102 1.129-0.064 2.164 0.027 3-0.002 0-0.023 0-0.027 0 0.125-0.029-0.688 5.893 11.977 14.951 0.010-0.006 0.016-0.012 0.023-0.018 0.008 0.006 0.014 0.012 0.023 0.018 12.664-9.059 11.852-14.98 11.977-14.951-0.004 0-0.025 0-0.027 0 0.092-0.836-0.074-1.871 0.027-3z"></path>
</g>
<g id="shades-chat">
  <path class="path1" d="M19 0h-6c-7.18 0-13 5.82-13 13 0 4.652 2.463 8.703 6.137 11h-0.137v8l9-6h4c7.18 0 13-5.82 13-13s-5.82-13-13-13zM19 22h-4l-5 3v-3.551c-3.488-1.24-6-4.537-6-8.449 0-4.971 4.029-9 9-9h6c4.971 0 9 4.029 9 9s-4.029 9-9 9z"></path>
</g>
<g id="shades-comments">
  <path class="path1" d="M8 14h16v4h-16zM8 8h16v4h-16zM30 0h-28c-1.105 0-2 0.894-2 2v22c0 1.105 0.894 2 2 2h4v6l9-6h15c1.105 0 2-0.895 2-2v-22c0-1.105-0.895-2-2-2zM28 22h-13l-5 3v-3h-6v-18h24v18z"></path>
</g>
<g id="shades-screen">
  <path class="path1" d="M30 0h-28c-1.105 0-2 0.894-2 2v22c0 1.105 0.895 2 2 2h12v2h-6c-1.104 0-2 0.895-2 2v2h20v-2c0-1.105-0.895-2-2-2h-6v-2h12c1.105 0 2-0.895 2-2v-22c0-1.105-0.895-2-2-2zM28 22h-24v-18h24v18z"></path>
</g>
<g id="shades-iphone">
  <path class="path1" d="M26 0h-20c-1.104 0-2 0.894-2 2v28c0 1.105 0.896 2 2 2h20c1.105 0 2-0.895 2-2v-28c0-1.105-0.895-2-2-2zM24 24h-16v-20h16v20z"></path>
</g>
<g id="shades-ipad">
  <path class="path1" d="M30 0h-28c-1.105 0-2 0.894-2 2v28c0 1.105 0.895 2 2 2h28c1.105 0 2-0.895 2-2v-28c0-1.105-0.895-2-2-2zM28 24h-24v-20h24v20z"></path>
</g>
<g id="shades-forkandspoon">
  <path class="path1" d="M14 0c-1.104 0-2 0.894-2 2v10h-2v-10c0-1.105-0.896-2-2-2s-2 0.894-2 2v10h-2v-10c0-1.105-0.896-2-2-2s-2 0.894-2 2v12c0 1.105 0.895 2 2 2h4v14c0 1.105 0.896 2 2 2s2-0.895 2-2v-14h4c1.104 0 2-0.895 2-2v-12c0-1.105-0.896-2-2-2zM26 0c-3.314 0-6 2.686-6 6 0 2.609 1.675 4.807 4 5.633v18.367c0 1.105 0.895 2 2 2s2-0.895 2-2v-18.367c2.325-0.826 4-3.023 4-5.633 0-3.314-2.686-6-6-6z"></path>
</g>
<g id="shades-forkandknife">
  <path class="path1" d="M14 0c-1.104 0-2 0.894-2 2v10h-2v-10c0-1.105-0.896-2-2-2s-2 0.894-2 2v10h-2v-10c0-1.105-0.896-2-2-2s-2 0.894-2 2v12c0 1.105 0.895 2 2 2h4v14c0 1.105 0.896 2 2 2s2-0.895 2-2v-14h4c1.104 0 2-0.895 2-2v-12c0-1.105-0.896-2-2-2zM28 0c0 0-4 1.291-4 6v4c0 2.609 1.675 4.807 4 5.633v14.367c0 1.105 0.895 2 2 2s2-0.895 2-2v-30h-4z"></path>
</g>
<g id="shades-instagram">
  <path class="path1" d="M30 0h-28c-1.105 0-2 0.894-2 2v28c0 1.105 0.894 2 2 2h28c1.105 0 2-0.895 2-2v-28c0-1.105-0.895-2-2-2zM12 16c0 0 0.316-4 4-4s4 4 4 4 0.115 4-4 4-4-4-4-4zM28 28h-24v-14h4.283c-0.166 0.643-0.283 1.305-0.283 2 0 4.418 3.582 8 8 8s8-3.582 8-8c0-0.695-0.117-1.357-0.283-2h4.283v14zM28 10h-6v-6h6v6z"></path>
</g>
<g id="shades-facebook">
  <path class="path1" d="M30 32h-28c-1.105 0-2-0.895-2-2v-28c0-1.105 0.894-2 2-2h28c1.105 0 2 0.894 2 2v28c0 1.105-0.895 2-2 2zM28 4h-24v24h24v-24zM16 12c0-2.205 1.824-4 3.715-4h2.285v4h-2v2h2v4h-2v6h-4v-6h-2v-4h2v-2z"></path>
</g>
<g id="shades-delicious">
  <path class="path1" d="M30 0h-28c-1.105 0-2 0.894-2 2v28c0 1.105 0.894 2 2 2h28c1.105 0 2-0.895 2-2v-28c0-1.105-0.895-2-2-2zM28 28h-12v-12h-12v-12h12v12h12v12z"></path>
</g>
<g id="shades-googleplus">
  <path class="path1" d="M4 18h-4v12c0 1.105 0.894 2 2 2h12v-4h-10v-10zM4 4h10v-4h-12c-1.105 0-2 0.894-2 2v12h4v-10zM28 28h-10v4h12c1.105 0 2-0.895 2-2v-12h-4v10zM30 0h-12v4h10v10h4v-12c0-1.105-0.895-2-2-2zM18 14v-6h-4v6h-6v4h6v6h4v-6h6v-4z"></path>
</g>
<g id="shades-dribbble">
  <path class="path1" d="M16 0c-8.837 0-16 7.163-16 16s7.163 16 16 16 16-7.163 16-16-7.163-16-16-16zM16 3.199c2.973 0 5.676 1.057 7.848 2.758-1.010 0.871-3.18 2.523-6.496 4.090-1.223-2.158-2.662-4.346-4.383-6.447 0.977-0.238 1.982-0.4 3.031-0.4zM10.559 4.455c0.969 1.316 2.563 3.648 4.244 6.625-3.592 1.178-7.742 1.217-10.953 0.959 1.104-3.352 3.549-6.090 6.709-7.584zM15.828 12.955c0.449 0.859 0.893 1.785 1.33 2.725-6.707 1.471-9.848 5.873-11.104 8.287-1.76-2.191-2.856-4.938-2.856-7.967 0-0.566 0.051-1.119 0.123-1.664 2.523 0.35 6.99 0.486 12.506-1.381zM18.268 18.262c1.197 2.926 2.248 6.096 2.861 9.453-1.572 0.689-3.303 1.086-5.129 1.086-3.037 0-5.789-1.104-7.984-2.869 3.178-4.418 6.861-6.647 10.252-7.67zM23.42 26.396c-0.162-0.916-0.861-4.34-2.518-8.723 3.877-0.574 6.953 0.184 7.707 0.402-0.564 3.422-2.48 6.383-5.189 8.32zM19.936 15.283c-0.465-1.080-0.965-2.184-1.549-3.32 2.316-1.002 4.777-2.371 7.326-4.211 1.898 2.232 3.088 5.088 3.088 8.248-3.414-0.758-6.336-0.924-8.865-0.717z"></path>
</g>
<g id="shades-pin">
  <path class="path1" d="M16 0c-6.627 0-12 5.373-12 12s12 20 12 20 12-13.373 12-20-5.373-12-12-12zM16 20c-4.418 0-8-3.582-8-8s3.582-8 8-8 8 3.582 8 8-3.582 8-8 8z"></path>
</g>
<g id="shades-pin-alt">
  <path class="path1" d="M16 0c-6.627 0-12 5.373-12 12s12 20 12 20 12-13.373 12-20-5.373-12-12-12zM16 20c-4.418 0-8-3.582-8-8s3.582-8 8-8 8 3.582 8 8-3.582 8-8 8zM16 8c-2.209 0-4 1.791-4 4s1.791 4 4 4 4-1.791 4-4-1.791-4-4-4z"></path>
</g>
<g id="shades-camera">
  <path class="path1" d="M30 6h-8v-4c0-1.103-0.895-2-2-2h-8c-1.104 0-2 0.896-2 2v4h-4v-2h-4v2c-1.105 0-2 0.896-2 2v22c0 1.105 0.895 2 2 2h28c1.105 0 2-0.895 2-2v-22c0-1.104-0.895-2-2-2zM14 4h4v2h-4v-2zM28 28h-24v-18h24v18zM16 24c3.314 0 6-2.686 6-6s-2.686-6-6-6-6 2.686-6 6 2.687 6 6 6zM16 16c1.105 0 2 0.895 2 2s-0.895 2-2 2-2-0.895-2-2 0.896-2 2-2z"></path>
</g>
<g id="shades-brightness">
  <path class="path1" d="M2 14c-1.105 0-2 0.895-2 2s0.895 2 2 2 2-0.895 2-2-0.896-2-2-2zM6 8c1.104 0 2-0.894 2-2s-0.896-2-2-2-2 0.894-2 2 0.896 2 2 2zM16 4c1.105 0 2-0.894 2-2 0-1.103-0.895-2-2-2s-2 0.896-2 2c0 1.106 0.896 2 2 2zM6 24c-1.104 0-2 0.895-2 2s0.896 2 2 2 2-0.895 2-2-0.896-2-2-2zM26 24c-1.105 0-2 0.895-2 2s0.895 2 2 2 2-0.895 2-2-0.895-2-2-2zM16 8c-4.418 0-8 3.582-8 8s3.582 8 8 8 8-3.582 8-8-3.582-8-8-8zM16 20c-2.209 0-4-1.791-4-4s1.791-4 4-4 4 1.791 4 4-1.791 4-4 4zM30 14c-1.105 0-2 0.895-2 2s0.895 2 2 2 2-0.895 2-2-0.895-2-2-2zM16 28c-1.104 0-2 0.896-2 2 0 1.105 0.896 2 2 2s2-0.895 2-2c0-1.104-0.895-2-2-2zM26 8c1.105 0 2-0.894 2-2s-0.895-2-2-2-2 0.894-2 2 0.895 2 2 2z"></path>
</g>
<g id="shades-brightness-half">
  <path class="path1" d="M16 8c-4.418 0-8 3.582-8 8s3.582 8 8 8 8-3.582 8-8-3.582-8-8-8zM16 20c-2.209 0-4-1.791-4-4s1.791-4 4-4v8zM16 4c1.105 0 2-0.894 2-2 0-1.103-0.895-2-2-2s-2 0.896-2 2c0 1.106 0.896 2 2 2zM6 8c1.104 0 2-0.894 2-2s-0.896-2-2-2-2 0.894-2 2 0.896 2 2 2zM2 14c-1.105 0-2 0.895-2 2s0.895 2 2 2 2-0.895 2-2-0.896-2-2-2zM6 24c-1.104 0-2 0.895-2 2s0.896 2 2 2 2-0.895 2-2-0.896-2-2-2zM16 28c-1.104 0-2 0.896-2 2 0 1.105 0.896 2 2 2s2-0.895 2-2c0-1.104-0.895-2-2-2zM26 24c-1.105 0-2 0.895-2 2s0.895 2 2 2 2-0.895 2-2-0.895-2-2-2zM30 14c-1.105 0-2 0.895-2 2s0.895 2 2 2 2-0.895 2-2-0.895-2-2-2zM26 8c1.105 0 2-0.894 2-2s-0.895-2-2-2-2 0.894-2 2 0.895 2 2 2z"></path>
</g>
<g id="shades-moon">
  <path class="path1" d="M15.99 7.002c0.004 4.97 4.029 8.999 8.999 8.999 2.668 0 5.041-1.184 6.788-3.922 0.295 0.053 0.231 2.707 0.211 3.922-0.143 8.835-7.163 15.999-15.999 15.999s-15.999-7.163-15.999-15.999 7.163-15.881 15.999-15.999c1.055-0.014 2.166 0.019 3.965 0.107-1.119 1.142-3.966 3.914-3.965 6.892zM11.991 10.002c0-2.162 0.701-4.15 1.867-5.785-5.605 1.010-9.866 5.888-9.866 11.784 0 6.626 5.373 11.999 11.999 11.999 5.896 0 10.774-4.261 11.784-9.866-1.635 1.166-3.623 1.867-5.785 1.867-5.523 0-9.999-4.476-9.999-9.999z"></path>
</g>
<g id="shades-cloud">
  <path class="path1" d="M25 8c-0.35 0-0.678 0.070-1.020 0.104-2.301-3.656-6.342-6.104-10.98-6.104-7.18 0-13 5.82-13 13v2c0 6.838 5.297 12.482 12 13h14c5.6-0.512 10-5.268 10-11 0-6.074-4.926-11-11-11zM26 26h-14c-1.119-0.125-2.166-0.547-3.123-1.043-0.020-0.010-0.037-0.021-0.057-0.031-0.447-0.236-0.871-0.502-1.269-0.809-0.059-0.043-0.111-0.092-0.168-0.137-0.352-0.283-0.688-0.582-0.994-0.916-0.098-0.104-0.18-0.221-0.271-0.33-0.248-0.297-0.492-0.598-0.701-0.926-0.123-0.191-0.217-0.398-0.324-0.598-0.15-0.281-0.309-0.553-0.428-0.85-0.125-0.303-0.203-0.625-0.293-0.943-0.064-0.225-0.148-0.438-0.195-0.67-0.111-0.564-0.176-1.148-0.176-1.748v-2c0-4.971 4.029-9 9-9 0.672 0 1.322 0.086 1.953 0.227 0.129 0.029 0.25 0.082 0.377 0.117 0.512 0.137 1.008 0.309 1.479 0.529 0.080 0.039 0.154 0.086 0.234 0.127 0.518 0.262 1.002 0.57 1.457 0.924 0.021 0.018 0.043 0.035 0.066 0.053 1.533 1.219 2.66 2.908 3.145 4.871 0.981-0.531 2.094-0.848 3.289-0.848 3.865 0 7 3.135 7 7 0 3.523-2.611 6.512-6 7z"></path>
</g>
<g id="shades-circle-full">
  <path class="path1" d="M16 32c-8.836 0-16-7.164-16-16s7.164-16 16-16 16 7.164 16 16-7.164 16-16 16zM16 4c-6.627 0-12 5.373-12 12s5.373 12 12 12 12-5.373 12-12-5.373-12-12-12zM16 24c-4.418 0-8-3.582-8-8s3.582-8 8-8 8 3.582 8 8-3.582 8-8 8z"></path>
</g>
<g id="shades-circle-half">
  <path class="path1" d="M16 32c-8.836 0-16-7.164-16-16s7.164-16 16-16 16 7.164 16 16-7.164 16-16 16zM16 4c-6.627 0-12 5.373-12 12s5.373 12 12 12 12-5.373 12-12-5.373-12-12-12zM8 16c0-4.418 3.582-8 8-8v16c-4.418 0-8-3.582-8-8z"></path>
</g>
<g id="shades-globe">
  <path class="path1" d="M16 32c-8.836 0-16-7.164-16-16s7.164-16 16-16 16 7.164 16 16-7.164 16-16 16zM16 4c-6.627 0-12 5.373-12 12s5.373 12 12 12 12-5.373 12-12-5.373-12-12-12zM21.881 23.213l-0.352 0.205-1.016 0.619-0.6 0.436c-0.445 0.213-0.91 0.381-1.391 0.523v-0.59l-0.17-1.357c0 0-0.084-0.783-0.211-0.988-0.127-0.207-0.424-0.496-0.721-0.619s-0.508-0.123-0.678-0.328c-0.17-0.207-0.297-0.578-0.508-0.906-0.213-0.33-0.467-0.66-0.467-0.824s0-1.854 0-1.854l0.213-1.564 0.465-0.33 0.551-0.617 0.381-0.123 1.313 0.246h0.932l0.383 0.783 0.889 0.699 0.551 0.865 0.719 0.246h0.805l0.551 0.66 0.34 0.699 0.127 0.494v0.824l-0.088 0.486c-0.537 0.881-1.219 1.656-2.018 2.314zM18.607 9.004l-0.932 0.494-0.338 0.947-0.551 0.494h-1.822l-0.846 0.33-0.043 0.658-0.338 0.535-0.086 0.578 0.17 0.494 0.211 0.494c0 0 0.51 0.576 0 0.988 0 0-0.635 0-0.762-0.207-0.127-0.205-1.059-0.781-1.229-0.947-0.168-0.164-0.719-0.328-0.719-0.328l-0.678-0.248-0.635-0.041 0.041-0.865-0.041-0.74-0.256-0.535-0.719-0.537-0.043-0.576 0.088-0.32c1.715-1.658 4.078-2.686 6.688-2.686 1.473 0 2.85 0.354 4.094 0.936l-0.027 0.217-1.229 0.865z"></path>
</g>
</defs>
</svg>
