<?xml version="1.0" encoding="utf-8"?>
<!-- Generator: Adobe Illustrator 19.1.0, SVG Export Plug-In . SVG Version: 6.00 Build 0)  -->
<svg version="1.1" id="Capa_1" xmlns="http://www.w3.org/2000/svg" xmlns:xlink="http://www.w3.org/1999/xlink" x="0px" y="0px"
	 viewBox="0 0 639.9 165.5" style="enable-background:new 0 0 639.9 165.5;" xml:space="preserve">
<style type="text/css">
	.st0{fill:#FFFFFF;}
</style>
<g>
	<path class="st0" d="M205.3,100.4c0,0,6.5,7.1,17.1,7.1c8,0,14.3-4.9,14.3-12.6c0-18.2-32.7-13.2-32.7-33.2
		c0-8.5,7.6-16.6,19.2-16.6c10.4,0,16.3,5.9,16.3,5.9l-2.2,3.4c0,0-5.5-5.5-14-5.5c-9.5,0-15.2,6.4-15.2,12.6
		c0,16.9,32.7,11.7,32.7,33.1c0,9.2-7.1,16.6-18.6,16.6c-12.6,0-19.6-8-19.6-8L205.3,100.4z"/>
	<path class="st0" d="M274.6,45.2c17.8,0,32.4,14.3,32.4,32.7c0,18.8-14.5,33.6-32.4,33.6s-32.4-14.7-32.4-33.6
		C242.2,59.4,256.8,45.2,274.6,45.2z M274.6,107.6c15.6,0,28.3-13,28.3-29.8c0-16.4-12.6-28.9-28.3-28.9s-28.3,12.5-28.3,28.9
		C246.3,94.6,259,107.6,274.6,107.6z"/>
	<path class="st0" d="M316.4,46.3h3.8l18.7,40.2c1.5,3.1,3.1,7.2,3.1,7.2h0.2c0,0,1.6-4.1,3.1-7.2L364,46.3h3.8l5.1,64H369
		l-3.9-48.8c-0.3-3.1-0.3-8.5-0.3-8.5h-0.2c0,0-1.8,5.4-3.3,8.5l-17.2,36.5h-4L323,61.4c-1.4-3-3.4-8.7-3.4-8.7h-0.2
		c0,0,0,5.6-0.3,8.7l-3.9,48.8h-3.9L316.4,46.3z"/>
	<path class="st0" d="M409.6,45.2c17.8,0,32.4,14.3,32.4,32.7c0,18.8-14.5,33.6-32.4,33.6c-17.8,0-32.4-14.7-32.4-33.6
		C377.2,59.4,391.8,45.2,409.6,45.2z M409.6,107.6c15.6,0,28.3-13,28.3-29.8c0-16.4-12.6-28.9-28.3-28.9
		c-15.6,0-28.3,12.5-28.3,28.9C381.3,94.6,394,107.6,409.6,107.6z"/>
	<path class="st0" d="M446,100.4c0,0,6.5,7.1,17.1,7.1c8,0,14.3-4.9,14.3-12.6c0-18.2-32.7-13.2-32.7-33.2c0-8.5,7.6-16.6,19.2-16.6
		c10.4,0,16.3,5.9,16.3,5.9l-2.2,3.4c0,0-5.5-5.5-14-5.5c-9.5,0-15.2,6.4-15.2,12.6c0,16.9,32.7,11.7,32.7,33.1
		c0,9.2-7.1,16.6-18.6,16.6c-12.6,0-19.6-8-19.6-8L446,100.4z"/>
	<path class="st0" d="M485.2,44.9h40.1v13.7h-24.1v13.7h19.9V86h-19.9v24.2h-16V44.9z"/>
	<path class="st0" d="M525.4,44.9h16v41.3c0,6.9,4.5,10.5,11.3,10.5s11.3-3.7,11.3-10.5V44.9h16v41.3c0,14.7-10.8,25.2-27.3,25.2
		c-16.6,0-27.4-10.4-27.4-25.2V44.9z"/>
	<path class="st0" d="M597.9,58.6h-19.8V44.9h55.7v13.7h-19.8v51.7h-16V58.6z"/>
</g>
<path class="st0" d="M113.9,124l35.6,1.1c9-12.4,14.5-27.4,15-43.7l-27-17.8l10.1-33.6C138.5,18.5,126.2,9.5,112,4.5L87.1,23.9
	L59.7,4.4c-14.4,5.1-26.9,14.2-36.1,26l10.9,31.4L7.1,81.6c0.6,16.9,6.5,32.5,16.2,45.1l32.7-3.3l13.2,32.3
	c5.3,1.1,10.9,1.8,16.6,1.8c6.1,0,12-0.7,17.7-2L113.9,124z M52.7,71.3l33.1-24.1L119,71.3l-12.7,39h-41L52.7,71.3z"/>
</svg>
